<?xml version="1.0" encoding="UTF-8" standalone="no"?>
<!DOCTYPE svg PUBLIC "-//W3C//DTD SVG 1.1//EN" "http://www.w3.org/Graphics/SVG/1.1/DTD/svg11.dtd">
<!-- Generated by Microsoft Visio, SVG Export fig1.svg Page-1 -->
<svg xmlns="http://www.w3.org/2000/svg" xmlns:xlink="http://www.w3.org/1999/xlink" xmlns:ev="http://www.w3.org/2001/xml-events"
		xmlns:v="http://schemas.microsoft.com/visio/2003/SVGExtensions/" width="7.6441in" height="6.03429in"
		viewBox="0 0 550.375 434.469" xml:space="preserve" color-interpolation-filters="sRGB" class="st37">
	<v:documentProperties v:langID="1033" v:viewMarkup="false">
		<v:userDefs>
			<v:ud v:nameU="msvNoAutoConnect" v:val="VT0(1):26"/>
		</v:userDefs>
	</v:documentProperties>

	<style type="text/css">
	<![CDATA[
		.st1 {fill:#f2f2f2;stroke:#000000;stroke-linecap:round;stroke-linejoin:round;stroke-opacity:0.3;stroke-width:0.5}
		.st2 {fill:#7f7f7f;font-family:Calibri;font-size:0.833336em;font-weight:bold}
		.st3 {fill:#ffffff;stroke:#000000;stroke-linecap:round;stroke-linejoin:round;stroke-opacity:0.3;stroke-width:0.5}
		.st4 {fill:#b7dde8;stroke:#000000;stroke-linecap:round;stroke-linejoin:round;stroke-opacity:0.3;stroke-width:0.5}
		.st5 {fill:#7f7f7f;font-family:Calibri;font-size:0.833336em}
		.st6 {fill:none;stroke:none;stroke-linecap:round;stroke-linejoin:round;stroke-width:0.5}
		.st7 {fill:#7f7f7f;font-family:Calibri;font-size:1.16666em;font-weight:bold}
		.st8 {font-size:1em}
		.st9 {marker-end:url(#mrkr4-28);marker-start:url(#mrkr4-26);stroke:#000000;stroke-linecap:round;stroke-linejoin:round;stroke-width:2.5}
		.st10 {fill:#000000;fill-opacity:1;stroke:#000000;stroke-opacity:1;stroke-width:0.63451776649746}
		.st11 {marker-end:url(#mrkr4-63);marker-start:url(#mrkr4-61);stroke:#000000;stroke-linecap:round;stroke-linejoin:round;stroke-width:2.25}
		.st12 {fill:#000000;fill-opacity:1;stroke:#000000;stroke-opacity:1;stroke-width:0.47169811320755}
		.st13 {fill:#000000;fill-opacity:0;stroke:none;stroke-linecap:round;stroke-linejoin:round;stroke-width:0.75}
		.st14 {fill:url(#grad1-70);stroke:none;stroke-linecap:round;stroke-linejoin:round;stroke-width:0.75}
		.st15 {fill:url(#grad7-74);stroke:none;stroke-linecap:round;stroke-linejoin:round;stroke-width:0.75}
		.st16 {fill:#7bb4d2}
		.st17 {stroke:none;stroke-linecap:round;stroke-linejoin:round;stroke-width:0.75}
		.st18 {fill:url(#grad0-81);stroke:none;stroke-linecap:round;stroke-linejoin:round;stroke-width:0.75}
		.st19 {fill:url(#grad0-85)}
		.st20 {fill:url(#grad3-93)}
		.st21 {fill:none}
		.st22 {stroke:#d75139;stroke-linecap:round;stroke-linejoin:round;stroke-width:0.375}
		.st23 {fill:url(#grad0-101)}
		.st24 {stroke:#295687;stroke-linecap:round;stroke-linejoin:round;stroke-width:0.375}
		.st25 {fill:none;stroke:#000000;stroke-linecap:round;stroke-linejoin:round;stroke-width:0.72}
		.st26 {fill:none;stroke:none;stroke-linecap:round;stroke-linejoin:round;stroke-width:0.24}
		.st27 {fill:#ffc000;stroke:#000000;stroke-linecap:round;stroke-linejoin:round;stroke-width:0.24}
		.st28 {fill:#000000;font-family:Calibri;font-size:1.00001em;font-weight:bold}
		.st29 {fill:#fff2cc;stroke:#000000;stroke-linecap:round;stroke-linejoin:round;stroke-opacity:0.25;stroke-width:0.24}
		.st30 {fill:#000000;font-family:Calibri;font-size:0.75em}
		.st31 {fill:#fffbec;stroke:#000000;stroke-linecap:round;stroke-linejoin:round;stroke-opacity:0.098;stroke-width:0.1}
		.st32 {fill:#fee599;stroke:#000000;stroke-linecap:round;stroke-linejoin:round;stroke-opacity:0.25;stroke-width:0.24}
		.st33 {fill:#ffd965;stroke:#000000;stroke-linecap:round;stroke-linejoin:round;stroke-opacity:0.5;stroke-width:0.24}
		.st34 {fill:#ffd965;stroke:#000000;stroke-linecap:round;stroke-linejoin:round;stroke-opacity:0.25;stroke-width:0.24}
		.st35 {fill:none;stroke:none;stroke-linecap:round;stroke-linejoin:round;stroke-width:0.75}
		.st36 {fill:#000000;font-family:Calibri;font-size:0.833336em}
		.st37 {fill:none;fill-rule:evenodd;font-size:12px;overflow:visible;stroke-linecap:square;stroke-miterlimit:3}
	]]>
	</style>

	<defs id="Patterns_And_Gradients">
		<radialGradient id="grad1-70" cx="1" cy="1" r="1.4">
			<stop offset="0" stop-color="#ffffff" stop-opacity="1"/>
			<stop offset="1" stop-color="#da8c36" stop-opacity="1"/>
		</radialGradient>
		<radialGradient id="grad7-74" cx="0" cy="0" r="1.4">
			<stop offset="0" stop-color="#e1f4f9" stop-opacity="1"/>
			<stop offset="1" stop-color="#7bb4d2" stop-opacity="1"/>
		</radialGradient>
		<linearGradient id="grad0-81" x1="0" y1="0" x2="1" y2="0" gradientTransform="rotate(0 0.5 0.5)">
			<stop offset="0" stop-color="#f7f3e8" stop-opacity="1"/>
			<stop offset="1" stop-color="#b7e4ee" stop-opacity="1"/>
		</linearGradient>
		<linearGradient id="grad0-85" x1="0" y1="0" x2="1" y2="0" gradientTransform="rotate(0 0.5 0.5)">
			<stop offset="0" stop-color="#7bb4d2" stop-opacity="1"/>
			<stop offset="1" stop-color="#658eb8" stop-opacity="1"/>
		</linearGradient>
		<radialGradient id="grad3-93" cx="0.5" cy="0.5" r="0.73">
			<stop offset="0" stop-color="#ffffff" stop-opacity="1"/>
			<stop offset="1" stop-color="#da8c36" stop-opacity="1"/>
		</radialGradient>
		<linearGradient id="grad0-101" x1="0" y1="0" x2="1" y2="0" gradientTransform="rotate(0 0.5 0.5)">
			<stop offset="0" stop-color="#b7e4ee" stop-opacity="1"/>
			<stop offset="1" stop-color="#7bb4d2" stop-opacity="1"/>
		</linearGradient>
	</defs>
	<defs id="Markers">
		<g id="lend4">
			<path d="M 2 1 L 0 0 L 2 -1 L 2 1 " style="stroke:none"/>
		</g>
		<marker id="mrkr4-26" class="st10" v:arrowType="4" v:arrowSize="0" v:setback="3.008" refX="3.008" orient="auto"
				markerUnits="strokeWidth" overflow="visible">
			<use xlink:href="#lend4" transform="scale(1.576) "/>
		</marker>
		<marker id="mrkr4-28" class="st10" v:arrowType="4" v:arrowSize="0" v:setback="3.152" refX="-3.152" orient="auto"
				markerUnits="strokeWidth" overflow="visible">
			<use xlink:href="#lend4" transform="scale(-1.576,-1.576) "/>
		</marker>
		<marker id="mrkr4-61" class="st12" v:arrowType="4" v:arrowSize="2" v:setback="4.08" refX="4.08" orient="auto"
				markerUnits="strokeWidth" overflow="visible">
			<use xlink:href="#lend4" transform="scale(2.12) "/>
		</marker>
		<marker id="mrkr4-63" class="st12" v:arrowType="4" v:arrowSize="2" v:setback="4.24" refX="-4.24" orient="auto"
				markerUnits="strokeWidth" overflow="visible">
			<use xlink:href="#lend4" transform="scale(-2.12,-2.12) "/>
		</marker>
	</defs>
	<g v:mID="0" v:index="1" v:groupContext="foregroundPage">
		<title>Page-1</title>
		<v:pageProperties v:drawingScale="1" v:pageScale="1" v:drawingUnits="19" v:shadowOffsetX="9" v:shadowOffsetY="-9"/>
		<v:layer v:name="Connector" v:index="0"/>
		<g id="group12-1" transform="translate(403.875,-319.469)" v:mID="12" v:groupContext="group">
			<title>Sheet.12</title>
			<g id="shape2-2" v:mID="2" v:groupContext="shape">
				<title>Rectangle.2</title>
				<desc>Node 1</desc>
				<v:userDefs>
					<v:ud v:nameU="visVersion" v:val="VT0(15):26"/>
				</v:userDefs>
				<v:textBlock v:margins="rect(4,4,4,4)" v:verticalAlign="0"/>
				<v:textRect cx="64.125" cy="386.094" width="128.25" height="96.75"/>
				<rect x="0" y="337.719" width="128.25" height="96.75" rx="4.824" ry="4.824" class="st1"/>
				<text x="4" y="350.72" class="st2" v:langID="1033"><v:paragraph/><v:tabList/>Node 1<v:newlineChar/></text>			</g>
			<g id="group11-5" transform="translate(40.5,-4.5)" v:mID="11" v:groupContext="group">
				<title>Sheet.11</title>
				<g id="shape9-6" v:mID="9" v:groupContext="shape">
					<title>Rectangle.9</title>
					<v:userDefs>
						<v:ud v:nameU="visVersion" v:val="VT0(15):26"/>
					</v:userDefs>
					<rect x="0" y="346.719" width="83.25" height="87.75" rx="4.824" ry="4.824" class="st3"/>
				</g>
				<g id="group10-8" transform="translate(4.5,-4.63235)" v:mID="10" v:groupContext="group">
					<title>Sheet.10</title>
					<g id="shape6-9" v:mID="6" v:groupContext="shape" transform="translate(0,-61.1471)">
						<title>Rectangle.6</title>
						<desc>Attr: Height</desc>
						<v:userDefs>
							<v:ud v:nameU="visVersion" v:val="VT0(15):26"/>
						</v:userDefs>
						<v:textBlock v:margins="rect(4,4,4,4)"/>
						<v:textRect cx="37.125" cy="425.733" width="74.25" height="17.4706"/>
						<rect x="0" y="416.998" width="74.25" height="17.4706" rx="4.824" ry="4.824" class="st4"/>
						<text x="13.26" y="428.73" class="st5" v:langID="1033"><v:paragraph v:horizAlign="1"/><v:tabList/>Attr: Height</text>					</g>
					<g id="shape7-12" v:mID="7" v:groupContext="shape">
						<title>Rectangle.7</title>
						<desc>Attr: n</desc>
						<v:userDefs>
							<v:ud v:nameU="visVersion" v:val="VT0(15):26"/>
						</v:userDefs>
						<v:textBlock v:margins="rect(4,4,4,4)"/>
						<v:textRect cx="37.125" cy="425.733" width="74.25" height="17.4706"/>
						<rect x="0" y="416.998" width="74.25" height="17.4706" rx="4.824" ry="4.824" class="st4"/>
						<text x="24.04" y="428.73" class="st5" v:langID="1033"><v:paragraph v:horizAlign="1"/><v:tabList/>Attr: n</text>					</g>
					<g id="shape8-15" v:mID="8" v:groupContext="shape" transform="translate(24.9926,-23.9007)">
						<title>Sheet.8</title>
						<desc>. . .</desc>
						<v:textBlock v:margins="rect(4,4,4,4)"/>
						<v:textRect cx="12.1324" cy="415.846" width="24.27" height="37.2463"/>
						<rect x="0" y="397.222" width="24.2647" height="37.2463" rx="4.824" ry="4.824" class="st6"/>
						<text x="10.26" y="403.25" class="st7" v:langID="1033"><v:paragraph v:horizAlign="1"/><v:tabList/>.<v:newlineChar/><tspan
									x="10.26" dy="1.2em" class="st8">.<v:newlineChar/></tspan><tspan x="10.26" dy="1.2em"
									class="st8">.</tspan></text>					</g>
				</g>
			</g>
		</g>
		<g id="shape22-20" v:mID="22" v:groupContext="shape" v:layerMember="0" transform="translate(265.5,-272.054)">
			<title>Dynamic connector</title>
			<path d="M6.18 430.19 L6.48 429.98 L131.9 343.16" class="st9"/>
		</g>
		<g id="shape23-29" v:mID="23" v:groupContext="shape" v:layerMember="0" transform="translate(265.5,-133.363)">
			<title>Dynamic connector.23</title>
			<path d="M6.74 437.8 L7.06 437.96 L127.94 497.72" class="st9"/>
		</g>
		<g id="group26-36" transform="translate(400.5,-18.25)" v:mID="26" v:groupContext="group">
			<title>Sheet.26</title>
			<g id="shape27-37" v:mID="27" v:groupContext="shape">
				<title>Rectangle.2</title>
				<desc>Node n</desc>
				<v:userDefs>
					<v:ud v:nameU="visVersion" v:val="VT0(15):26"/>
				</v:userDefs>
				<v:textBlock v:margins="rect(4,4,4,4)" v:verticalAlign="0"/>
				<v:textRect cx="64.125" cy="386.094" width="128.25" height="96.75"/>
				<rect x="0" y="337.719" width="128.25" height="96.75" rx="4.824" ry="4.824" class="st1"/>
				<text x="4" y="350.72" class="st2" v:langID="1033"><v:paragraph/><v:tabList/>Node n<v:newlineChar/></text>			</g>
			<g id="group28-40" transform="translate(40.5,-4.5)" v:mID="28" v:groupContext="group">
				<title>Sheet.28</title>
				<g id="shape29-41" v:mID="29" v:groupContext="shape">
					<title>Rectangle.9</title>
					<v:userDefs>
						<v:ud v:nameU="visVersion" v:val="VT0(15):26"/>
					</v:userDefs>
					<rect x="0" y="346.719" width="83.25" height="87.75" rx="4.824" ry="4.824" class="st3"/>
				</g>
				<g id="group30-43" transform="translate(4.5,-4.63235)" v:mID="30" v:groupContext="group">
					<title>Sheet.30</title>
					<g id="shape31-44" v:mID="31" v:groupContext="shape" transform="translate(0,-61.1471)">
						<title>Rectangle.6</title>
						<desc>Attr: Height</desc>
						<v:userDefs>
							<v:ud v:nameU="visVersion" v:val="VT0(15):26"/>
						</v:userDefs>
						<v:textBlock v:margins="rect(4,4,4,4)"/>
						<v:textRect cx="37.125" cy="425.733" width="74.25" height="17.4706"/>
						<rect x="0" y="416.998" width="74.25" height="17.4706" rx="4.824" ry="4.824" class="st4"/>
						<text x="13.26" y="428.73" class="st5" v:langID="1033"><v:paragraph v:horizAlign="1"/><v:tabList/>Attr: Height</text>					</g>
					<g id="shape32-47" v:mID="32" v:groupContext="shape">
						<title>Rectangle.7</title>
						<desc>Attr: n</desc>
						<v:userDefs>
							<v:ud v:nameU="visVersion" v:val="VT0(15):26"/>
						</v:userDefs>
						<v:textBlock v:margins="rect(4,4,4,4)"/>
						<v:textRect cx="37.125" cy="425.733" width="74.25" height="17.4706"/>
						<rect x="0" y="416.998" width="74.25" height="17.4706" rx="4.824" ry="4.824" class="st4"/>
						<text x="24.04" y="428.73" class="st5" v:langID="1033"><v:paragraph v:horizAlign="1"/><v:tabList/>Attr: n</text>					</g>
					<g id="shape33-50" v:mID="33" v:groupContext="shape" transform="translate(24.9926,-23.9007)">
						<title>Sheet.33</title>
						<desc>. . .</desc>
						<v:textBlock v:margins="rect(4,4,4,4)"/>
						<v:textRect cx="12.1324" cy="415.846" width="24.27" height="37.2463"/>
						<rect x="0" y="397.222" width="24.2647" height="37.2463" rx="4.824" ry="4.824" class="st6"/>
						<text x="10.26" y="403.25" class="st7" v:langID="1033"><v:paragraph v:horizAlign="1"/><v:tabList/>.<v:newlineChar/><tspan
									x="10.26" dy="1.2em" class="st8">.<v:newlineChar/></tspan><tspan x="10.26" dy="1.2em"
									class="st8">.</tspan></text>					</g>
				</g>
			</g>
		</g>
		<g id="shape37-55" v:mID="37" v:groupContext="shape" v:layerMember="0" transform="translate(81,-222.719)">
			<title>Dynamic connector.37</title>
			<path d="M9.18 443.47 L9.54 443.47 L102.96 443.47" class="st11"/>
		</g>
		<g id="group38-64" transform="translate(18,-191.781)" v:mID="38" v:groupContext="group">
			<v:userDefs>
				<v:ud v:nameU="SkinColor" v:prompt="" v:val="VT5(#da8c36)"/>
				<v:ud v:nameU="visVersion" v:prompt="" v:val="VT0(15):26"/>
			</v:userDefs>
			<title>Person</title>
			<g id="shape39-65" v:mID="39" v:groupContext="shape" transform="translate(7.5479,-0.0293284)">
				<title>Sheet.39</title>
				<path d="M8.95 434.47 L18.78 429.69 L18.78 426.27 L19.56 414.92 A2.98451 2.98451 -180 0 0 20.53 412.58 A4.16849 4.16849
							 -180 0 0 19.96 410.43 A1.04609 1.04609 -180 0 0 20.63 409.71 A429.274 429.274 -180 0 0 20.88 391.52
							 A8.69276 8.69276 -180 0 0 20.54 389.57 A11.2608 11.2608 -180 0 0 16.52 384.55 A16.3541 16.3541 -180
							 0 0 13.49 382.74 L13.48 382.2 A5.86353 5.86353 -180 0 0 16 377.36 A5.75729 5.75729 -180 0 0 10.32 371.53
							 A5.75693 5.75693 -180 0 0 4.64 377.36 A5.8584 5.8584 -180 0 0 7.22 382.24 A33.6659 33.6659 -180 0 0
							 2.42 384.56 A4.33958 4.33958 -180 0 0 0.65 387.22 A124.116 124.116 -180 0 0 0.36 397.82 A2286.65 2286.65
							 0 0 1 0.39 404.86 A1.82452 1.82452 -180 0 0 1.23 406.16 A3.87684 3.87684 -180 0 0 0.45 408.05 A2.9204
							 2.9204 -180 0 0 2.76 411.58 A1.3609 1.3609 -180 0 0 3.64 411.35 L4.54 424.8 L0 429.08 L0 430.15 L3.53
							 431.86 L3.82 431.76 L5.04 431.36 L5.13 432.43 L8.66 434.28 L8.95 434.47 Z" class="st13"/>
			</g>
			<g id="shape40-67" v:mID="40" v:groupContext="shape" transform="translate(7.7338,-22.8227)">
				<title>Sheet.40</title>
				<path d="M3.39 427.76 A2.91869 2.91869 0 0 1 5.69 431.28 A3.23221 3.23221 0 0 1 2.54 434.34 A2.91996 2.91996 0 0
							 1 0.23 430.81 A3.22638 3.22638 0 0 1 3.39 427.76 Z" class="st14"/>
			</g>
			<g id="shape41-71" v:mID="41" v:groupContext="shape" transform="translate(7.51575,-0.244116)">
				<title>Sheet.41</title>
				<path d="M15.74 398.27 A10.5863 10.5863 -180 0 0 7.56 385.41 A3.97819 3.97819 -180 0 0 0.65 387.41 A156.796 156.796
							 -180 0 0 0.38 394.04 A2013.96 2013.96 -180 0 0 0.39 405.04 A4.23093 4.23093 -180 0 0 3.39 407.39 L3.64
							 411.54 L4.54 424.99 L0 429.27 L0 430.34 L3.53 432.04 L5.04 431.55 L5.13 432.62 L8.66 434.47 L13.87 428.91
							 L15.74 411.95 A5.89239 5.89239 -180 0 0 16.11 409.04 A1752.96 1752.96 -180 0 0 15.74 398.27 Z"
						class="st15"/>
			</g>
			<g id="shape42-75" v:mID="42" v:groupContext="shape" transform="translate(10.9349,0)">
				<title>Sheet.42</title>
				<path d="M1.62 431.3 L0.16 431.82 A2.2741 2.2741 0 0 1 0.04 430.65 A14.472 14.472 0 0 1 4.45 426.45 L5.07 408.36
							 L6.12 409.01 L6.63 426.94 A118.342 118.342 -180 0 0 1.62 431.3 ZM16.25 412.35 L15.36 426.22 L15.36 429.63
							 L5.42 434.47 A3.72426 3.72426 0 0 1 5.3 433.29 A20.0468 20.0468 0 0 1 10.25 428.6 L11.39 412.26 L16.25
							 412.35 Z" class="st16"/>
				<path d="M1.62 431.3 L0.16 431.82 A2.2741 2.2741 0 0 1 0.04 430.65 A14.472 14.472 0 0 1 4.45 426.45 L5.07 408.36
							 L6.12 409.01 L6.63 426.94 A118.342 118.342 -180 0 0 1.62 431.3M16.25 412.35 L15.36 426.22 L15.36 429.63
							 L5.42 434.47 A3.72426 3.72426 0 0 1 5.3 433.29 A20.0468 20.0468 0 0 1 10.25 428.6 L11.39 412.26"
						class="st17"/>
			</g>
			<g id="shape43-78" v:mID="43" v:groupContext="shape" transform="translate(9.94127,-42.1294)">
				<title>Sheet.43</title>
				<path d="M12.51 434.47 A11.2006 11.2006 -180 0 0 8.45 429.36 A10.6202 10.6202 -180 0 0 0 426.63 A134.973 116.403
							 0 0 1 5.51 423.89 A10.8808 10.8808 0 0 1 14.1 426.62 A11.2712 11.2712 0 0 1 18.12 431.64 L12.51 434.47
							 Z" class="st18"/>
			</g>
			<g id="shape44-82" v:mID="44" v:groupContext="shape" transform="translate(14.4702,-49.678)">
				<title>Sheet.44</title>
				<path d="M0.16 431.94 L0.19 433.15 A2.3674 2.3674 -180 0 0 2.94 434.21 A7.14283 7.14283 -180 0 0 6.55 433.8 L6.53
							 431.52 A6.29756 6.29756 0 0 1 0.27 431.89 L0.16 431.94 Z" class="st19"/>
				<path d="M0.16 431.94 L0.19 433.15 A2.3674 2.3674 -180 0 0 2.94 434.21 A7.14283 7.14283 -180 0 0 6.55 433.8 L6.53
							 431.52 A6.29756 6.29756 0 0 1 0.27 431.89" class="st17"/>
			</g>
			<g id="shape45-87" v:mID="45" v:groupContext="shape" transform="translate(22.3096,-18.6865)">
				<title>Sheet.45</title>
				<path d="M3.26 427.75 A3.29527 3.29527 0 0 1 5.74 431.56 A3.09865 3.09865 0 0 1 2.41 434.47 A3.21752 3.21752 0 0
							 1 0.01 430.94 A4.72464 4.72464 0 0 1 3.26 427.75 Z" class="st14"/>
			</g>
			<g id="shape46-90" v:mID="46" v:groupContext="shape" transform="translate(12.1537,-51.3428)">
				<title>Sheet.46</title>
				<path d="M11.36 428.64 A5.75729 5.75729 0 0 1 5.68 434.47 A5.75693 5.75693 0 0 1 0 428.64 A5.75693 5.75693 0 0 1
							 5.68 422.81 A5.75674 5.75674 0 0 1 11.36 428.64 L-2.84 419.9 L11.36 428.64 Z" class="st20"/>
				<path d="M11.36 428.64 A5.75729 5.75729 0 0 1 5.68 434.47 A5.75693 5.75693 0 0 1 0 428.64 A5.75693 5.75693 0 0 1
							 5.68 422.81 A5.75674 5.75674 0 0 1 11.36 428.64" class="st17"/>
			</g>
			<g id="shape47-95" v:mID="47" v:groupContext="shape" transform="translate(13.7801,-51.3394)">
				<title>Sheet.47</title>
				<path d="M7.76 433.16 A5.65053 5.65053 0 0 1 4.16 434.47 A5.70901 5.70901 0 0 1 0 432.65 L7.76 433.16 Z"
						class="st21"/>
				<path d="M7.76 433.16 A5.65053 5.65053 0 0 1 4.16 434.47 A5.70901 5.70901 0 0 1 0 432.65" class="st22"/>
			</g>
			<g id="shape48-98" v:mID="48" v:groupContext="shape" transform="translate(22.454,-23.3773)">
				<title>Sheet.48</title>
				<path d="M5.61 412.88 A8.69276 8.69276 0 0 1 5.94 414.84 A429.236 429.236 0 0 1 5.7 433.03 A7.27148 7.27148 0 0 1
							 0.54 434.41 A1199.9 1199.9 -180 0 0 0.39 417.47 A7.83038 7.83038 -180 0 0 0.03 415.81 L0 415.72 A4.51794
							 4.51794 0 0 1 5.6 412.87 L5.61 412.88 Z" class="st23"/>
				<path d="M5.61 412.88 A8.69276 8.69276 0 0 1 5.94 414.84 A429.236 429.236 0 0 1 5.7 433.03 A7.27148 7.27148 0 0 1
							 0.54 434.41 A1199.9 1199.9 -180 0 0 0.39 417.47 A7.83038 7.83038 -180 0 0 0.03 415.81 L0 415.72 A4.51794
							 4.51794 0 0 1 5.6 412.87" class="st17"/>
			</g>
			<g id="shape49-103" v:mID="49" v:groupContext="shape" transform="translate(8.90305,-3.3236)">
				<title>Sheet.49</title>
				<path d="M8.15 412.34 L8.66 430.26 A45.7462 45.7462 -180 0 0 3.96 434.47 L8.15 412.34 ZM18.56 417.72 A2.81093 2.81093
							 0 1 1 14.09 414.35 A2.68968 2.68968 0 0 1 12.02 412.38 A569.018 569.018 -180 0 0 11.98 399.44 L18.56
							 417.72 ZM2.25 414.62 L1.4 395.27 L2.25 414.62 ZM0 409.34 A4.48106 4.48106 -180 0 0 2 410.47 L0 409.34
							 Z" class="st21"/>
				<path d="M8.15 412.34 L8.66 430.26 A45.7462 45.7462 -180 0 0 3.96 434.47M18.56 417.72 A2.81093 2.81093 0 1 1 14.09
							 414.35 A2.68968 2.68968 0 0 1 12.02 412.38 A569.018 569.018 -180 0 0 11.98 399.44M2.25 414.62 L1.4 395.27M0
							 409.34 A4.48106 4.48106 -180 0 0 2 410.47" class="st24"/>
			</g>
			<g id="shape50-106" v:mID="50" v:groupContext="shape" transform="translate(7.51775,-0.0586568)">
				<title>Sheet.50</title>
				<path d="M8.95 434.47 L18.78 429.69 L18.78 426.27 L19.56 414.92 A3.03925 3.03925 -180 0 0 20.53 412.58 A4.25601 4.25601
							 -180 0 0 19.96 410.43 A1.0737 1.0737 -180 0 0 20.63 409.71 A427.906 427.906 -180 0 0 20.88 391.52 A8.78975
							 8.78975 -180 0 0 20.54 389.57 A10.9921 10.9921 -180 0 0 16.52 384.55 A16.4081 16.4081 -180 0 0 13.49
							 382.74 L13.48 382.2 A5.86419 5.86419 -180 0 0 16 377.36 A5.75795 5.75795 -180 0 0 10.32 371.53 A5.75758
							 5.75758 -180 0 0 4.64 377.36 A5.85897 5.85897 -180 0 0 7.22 382.24 A42.1393 42.1393 -180 0 0 2.42 384.56
							 A4.33634 4.33634 -180 0 0 0.65 387.22 A134.355 134.355 -180 0 0 0.36 397.82 A2951.92 2951.92 0 0 1 0.39
							 404.86 A1.85903 1.85903 -180 0 0 1.23 406.16 A3.87726 3.87726 -180 0 0 0.45 408.05 A2.93989 2.93989
							 -180 0 0 2.76 411.58 A1.37132 1.37132 -180 0 0 3.64 411.35 L4.54 424.8 L0 429.08 L0 430.15 L3.53 431.86
							 L3.82 431.76 L5.04 431.36 L5.13 432.43 L8.66 434.28 L8.95 434.47 Z" class="st25"/>
			</g>
		</g>
		<g id="group51-108" transform="translate(32.625,-183.906)" v:mID="51" v:groupContext="group">
			<v:userDefs>
				<v:ud v:nameU="SkinColor" v:prompt="" v:val="VT5(#da8c36)"/>
				<v:ud v:nameU="visVersion" v:prompt="" v:val="VT0(15):26"/>
			</v:userDefs>
			<title>Person.51</title>
			<g id="shape52-109" v:mID="52" v:groupContext="shape" transform="translate(7.5479,-0.0293284)">
				<title>Sheet.52</title>
				<path d="M8.95 434.47 L18.78 429.69 L18.78 426.27 L19.56 414.92 A2.98451 2.98451 -180 0 0 20.53 412.58 A4.16849 4.16849
							 -180 0 0 19.96 410.43 A1.04609 1.04609 -180 0 0 20.63 409.71 A429.274 429.274 -180 0 0 20.88 391.52
							 A8.69276 8.69276 -180 0 0 20.54 389.57 A11.2608 11.2608 -180 0 0 16.52 384.55 A16.3541 16.3541 -180
							 0 0 13.49 382.74 L13.48 382.2 A5.86353 5.86353 -180 0 0 16 377.36 A5.75729 5.75729 -180 0 0 10.32 371.53
							 A5.75693 5.75693 -180 0 0 4.64 377.36 A5.8584 5.8584 -180 0 0 7.22 382.24 A33.6659 33.6659 -180 0 0
							 2.42 384.56 A4.33958 4.33958 -180 0 0 0.65 387.22 A124.116 124.116 -180 0 0 0.36 397.82 A2286.65 2286.65
							 0 0 1 0.39 404.86 A1.82452 1.82452 -180 0 0 1.23 406.16 A3.87684 3.87684 -180 0 0 0.45 408.05 A2.9204
							 2.9204 -180 0 0 2.76 411.58 A1.3609 1.3609 -180 0 0 3.64 411.35 L4.54 424.8 L0 429.08 L0 430.15 L3.53
							 431.86 L3.82 431.76 L5.04 431.36 L5.13 432.43 L8.66 434.28 L8.95 434.47 Z" class="st13"/>
			</g>
			<g id="shape53-111" v:mID="53" v:groupContext="shape" transform="translate(7.7338,-22.8227)">
				<title>Sheet.53</title>
				<path d="M3.39 427.76 A2.91869 2.91869 0 0 1 5.69 431.28 A3.23221 3.23221 0 0 1 2.54 434.34 A2.91996 2.91996 0 0
							 1 0.23 430.81 A3.22638 3.22638 0 0 1 3.39 427.76 Z" class="st14"/>
			</g>
			<g id="shape54-114" v:mID="54" v:groupContext="shape" transform="translate(7.51575,-0.244116)">
				<title>Sheet.54</title>
				<path d="M15.74 398.27 A10.5863 10.5863 -180 0 0 7.56 385.41 A3.97819 3.97819 -180 0 0 0.65 387.41 A156.796 156.796
							 -180 0 0 0.38 394.04 A2013.96 2013.96 -180 0 0 0.39 405.04 A4.23093 4.23093 -180 0 0 3.39 407.39 L3.64
							 411.54 L4.54 424.99 L0 429.27 L0 430.34 L3.53 432.04 L5.04 431.55 L5.13 432.62 L8.66 434.47 L13.87 428.91
							 L15.74 411.95 A5.89239 5.89239 -180 0 0 16.11 409.04 A1752.96 1752.96 -180 0 0 15.74 398.27 Z"
						class="st15"/>
			</g>
			<g id="shape55-117" v:mID="55" v:groupContext="shape" transform="translate(10.9349,0)">
				<title>Sheet.55</title>
				<path d="M1.62 431.3 L0.16 431.82 A2.2741 2.2741 0 0 1 0.04 430.65 A14.472 14.472 0 0 1 4.45 426.45 L5.07 408.36
							 L6.12 409.01 L6.63 426.94 A118.342 118.342 -180 0 0 1.62 431.3 ZM16.25 412.35 L15.36 426.22 L15.36 429.63
							 L5.42 434.47 A3.72426 3.72426 0 0 1 5.3 433.29 A20.0468 20.0468 0 0 1 10.25 428.6 L11.39 412.26 L16.25
							 412.35 Z" class="st16"/>
				<path d="M1.62 431.3 L0.16 431.82 A2.2741 2.2741 0 0 1 0.04 430.65 A14.472 14.472 0 0 1 4.45 426.45 L5.07 408.36
							 L6.12 409.01 L6.63 426.94 A118.342 118.342 -180 0 0 1.62 431.3M16.25 412.35 L15.36 426.22 L15.36 429.63
							 L5.42 434.47 A3.72426 3.72426 0 0 1 5.3 433.29 A20.0468 20.0468 0 0 1 10.25 428.6 L11.39 412.26"
						class="st17"/>
			</g>
			<g id="shape56-120" v:mID="56" v:groupContext="shape" transform="translate(9.94127,-42.1294)">
				<title>Sheet.56</title>
				<path d="M12.51 434.47 A11.2006 11.2006 -180 0 0 8.45 429.36 A10.6202 10.6202 -180 0 0 0 426.63 A134.973 116.403
							 0 0 1 5.51 423.89 A10.8808 10.8808 0 0 1 14.1 426.62 A11.2712 11.2712 0 0 1 18.12 431.64 L12.51 434.47
							 Z" class="st18"/>
			</g>
			<g id="shape57-123" v:mID="57" v:groupContext="shape" transform="translate(14.4702,-49.678)">
				<title>Sheet.57</title>
				<path d="M0.16 431.94 L0.19 433.15 A2.3674 2.3674 -180 0 0 2.94 434.21 A7.14283 7.14283 -180 0 0 6.55 433.8 L6.53
							 431.52 A6.29756 6.29756 0 0 1 0.27 431.89 L0.16 431.94 Z" class="st19"/>
				<path d="M0.16 431.94 L0.19 433.15 A2.3674 2.3674 -180 0 0 2.94 434.21 A7.14283 7.14283 -180 0 0 6.55 433.8 L6.53
							 431.52 A6.29756 6.29756 0 0 1 0.27 431.89" class="st17"/>
			</g>
			<g id="shape58-127" v:mID="58" v:groupContext="shape" transform="translate(22.3096,-18.6865)">
				<title>Sheet.58</title>
				<path d="M3.26 427.75 A3.29527 3.29527 0 0 1 5.74 431.56 A3.09865 3.09865 0 0 1 2.41 434.47 A3.21752 3.21752 0 0
							 1 0.01 430.94 A4.72464 4.72464 0 0 1 3.26 427.75 Z" class="st14"/>
			</g>
			<g id="shape59-130" v:mID="59" v:groupContext="shape" transform="translate(12.1537,-51.3428)">
				<title>Sheet.59</title>
				<path d="M11.36 428.64 A5.75729 5.75729 0 0 1 5.68 434.47 A5.75693 5.75693 0 0 1 0 428.64 A5.75693 5.75693 0 0 1
							 5.68 422.81 A5.75674 5.75674 0 0 1 11.36 428.64 L-2.84 419.9 L11.36 428.64 Z" class="st20"/>
				<path d="M11.36 428.64 A5.75729 5.75729 0 0 1 5.68 434.47 A5.75693 5.75693 0 0 1 0 428.64 A5.75693 5.75693 0 0 1
							 5.68 422.81 A5.75674 5.75674 0 0 1 11.36 428.64" class="st17"/>
			</g>
			<g id="shape60-134" v:mID="60" v:groupContext="shape" transform="translate(13.7801,-51.3394)">
				<title>Sheet.60</title>
				<path d="M7.76 433.16 A5.65053 5.65053 0 0 1 4.16 434.47 A5.70901 5.70901 0 0 1 0 432.65 L7.76 433.16 Z"
						class="st21"/>
				<path d="M7.76 433.16 A5.65053 5.65053 0 0 1 4.16 434.47 A5.70901 5.70901 0 0 1 0 432.65" class="st22"/>
			</g>
			<g id="shape61-137" v:mID="61" v:groupContext="shape" transform="translate(22.454,-23.3773)">
				<title>Sheet.61</title>
				<path d="M5.61 412.88 A8.69276 8.69276 0 0 1 5.94 414.84 A429.236 429.236 0 0 1 5.7 433.03 A7.27148 7.27148 0 0 1
							 0.54 434.41 A1199.9 1199.9 -180 0 0 0.39 417.47 A7.83038 7.83038 -180 0 0 0.03 415.81 L0 415.72 A4.51794
							 4.51794 0 0 1 5.6 412.87 L5.61 412.88 Z" class="st23"/>
				<path d="M5.61 412.88 A8.69276 8.69276 0 0 1 5.94 414.84 A429.236 429.236 0 0 1 5.7 433.03 A7.27148 7.27148 0 0 1
							 0.54 434.41 A1199.9 1199.9 -180 0 0 0.39 417.47 A7.83038 7.83038 -180 0 0 0.03 415.81 L0 415.72 A4.51794
							 4.51794 0 0 1 5.6 412.87" class="st17"/>
			</g>
			<g id="shape62-141" v:mID="62" v:groupContext="shape" transform="translate(8.90305,-3.3236)">
				<title>Sheet.62</title>
				<path d="M8.15 412.34 L8.66 430.26 A45.7462 45.7462 -180 0 0 3.96 434.47 L8.15 412.34 ZM18.56 417.72 A2.81093 2.81093
							 0 1 1 14.09 414.35 A2.68968 2.68968 0 0 1 12.02 412.38 A569.018 569.018 -180 0 0 11.98 399.44 L18.56
							 417.72 ZM2.25 414.62 L1.4 395.27 L2.25 414.62 ZM0 409.34 A4.48106 4.48106 -180 0 0 2 410.47 L0 409.34
							 Z" class="st21"/>
				<path d="M8.15 412.34 L8.66 430.26 A45.7462 45.7462 -180 0 0 3.96 434.47M18.56 417.72 A2.81093 2.81093 0 1 1 14.09
							 414.35 A2.68968 2.68968 0 0 1 12.02 412.38 A569.018 569.018 -180 0 0 11.98 399.44M2.25 414.62 L1.4 395.27M0
							 409.34 A4.48106 4.48106 -180 0 0 2 410.47" class="st24"/>
			</g>
			<g id="shape63-144" v:mID="63" v:groupContext="shape" transform="translate(7.51775,-0.0586568)">
				<title>Sheet.63</title>
				<path d="M8.95 434.47 L18.78 429.69 L18.78 426.27 L19.56 414.92 A3.03925 3.03925 -180 0 0 20.53 412.58 A4.25601 4.25601
							 -180 0 0 19.96 410.43 A1.0737 1.0737 -180 0 0 20.63 409.71 A427.906 427.906 -180 0 0 20.88 391.52 A8.78975
							 8.78975 -180 0 0 20.54 389.57 A10.9921 10.9921 -180 0 0 16.52 384.55 A16.4081 16.4081 -180 0 0 13.49
							 382.74 L13.48 382.2 A5.86419 5.86419 -180 0 0 16 377.36 A5.75795 5.75795 -180 0 0 10.32 371.53 A5.75758
							 5.75758 -180 0 0 4.64 377.36 A5.85897 5.85897 -180 0 0 7.22 382.24 A42.1393 42.1393 -180 0 0 2.42 384.56
							 A4.33634 4.33634 -180 0 0 0.65 387.22 A134.355 134.355 -180 0 0 0.36 397.82 A2951.92 2951.92 0 0 1 0.39
							 404.86 A1.85903 1.85903 -180 0 0 1.23 406.16 A3.87726 3.87726 -180 0 0 0.45 408.05 A2.93989 2.93989
							 -180 0 0 2.76 411.58 A1.37132 1.37132 -180 0 0 3.64 411.35 L4.54 424.8 L0 429.08 L0 430.15 L3.53 431.86
							 L3.82 431.76 L5.04 431.36 L5.13 432.43 L8.66 434.28 L8.95 434.47 Z" class="st25"/>
			</g>
		</g>
		<g id="group64-146" transform="translate(46.125,-174.906)" v:mID="64" v:groupContext="group">
			<v:userDefs>
				<v:ud v:nameU="SkinColor" v:prompt="" v:val="VT5(#da8c36)"/>
				<v:ud v:nameU="visVersion" v:prompt="" v:val="VT0(15):26"/>
			</v:userDefs>
			<title>Person.64</title>
			<g id="shape65-147" v:mID="65" v:groupContext="shape" transform="translate(7.5479,-0.0293284)">
				<title>Sheet.65</title>
				<path d="M8.95 434.47 L18.78 429.69 L18.78 426.27 L19.56 414.92 A2.98451 2.98451 -180 0 0 20.53 412.58 A4.16849 4.16849
							 -180 0 0 19.96 410.43 A1.04609 1.04609 -180 0 0 20.63 409.71 A429.274 429.274 -180 0 0 20.88 391.52
							 A8.69276 8.69276 -180 0 0 20.54 389.57 A11.2608 11.2608 -180 0 0 16.52 384.55 A16.3541 16.3541 -180
							 0 0 13.49 382.74 L13.48 382.2 A5.86353 5.86353 -180 0 0 16 377.36 A5.75729 5.75729 -180 0 0 10.32 371.53
							 A5.75693 5.75693 -180 0 0 4.64 377.36 A5.8584 5.8584 -180 0 0 7.22 382.24 A33.6659 33.6659 -180 0 0
							 2.42 384.56 A4.33958 4.33958 -180 0 0 0.65 387.22 A124.116 124.116 -180 0 0 0.36 397.82 A2286.65 2286.65
							 0 0 1 0.39 404.86 A1.82452 1.82452 -180 0 0 1.23 406.16 A3.87684 3.87684 -180 0 0 0.45 408.05 A2.9204
							 2.9204 -180 0 0 2.76 411.58 A1.3609 1.3609 -180 0 0 3.64 411.35 L4.54 424.8 L0 429.08 L0 430.15 L3.53
							 431.86 L3.82 431.76 L5.04 431.36 L5.13 432.43 L8.66 434.28 L8.95 434.47 Z" class="st13"/>
			</g>
			<g id="shape66-149" v:mID="66" v:groupContext="shape" transform="translate(7.7338,-22.8227)">
				<title>Sheet.66</title>
				<path d="M3.39 427.76 A2.91869 2.91869 0 0 1 5.69 431.28 A3.23221 3.23221 0 0 1 2.54 434.34 A2.91996 2.91996 0 0
							 1 0.23 430.81 A3.22638 3.22638 0 0 1 3.39 427.76 Z" class="st14"/>
			</g>
			<g id="shape67-152" v:mID="67" v:groupContext="shape" transform="translate(7.51575,-0.244116)">
				<title>Sheet.67</title>
				<path d="M15.74 398.27 A10.5863 10.5863 -180 0 0 7.56 385.41 A3.97819 3.97819 -180 0 0 0.65 387.41 A156.796 156.796
							 -180 0 0 0.38 394.04 A2013.96 2013.96 -180 0 0 0.39 405.04 A4.23093 4.23093 -180 0 0 3.39 407.39 L3.64
							 411.54 L4.54 424.99 L0 429.27 L0 430.34 L3.53 432.04 L5.04 431.55 L5.13 432.62 L8.66 434.47 L13.87 428.91
							 L15.74 411.95 A5.89239 5.89239 -180 0 0 16.11 409.04 A1752.96 1752.96 -180 0 0 15.74 398.27 Z"
						class="st15"/>
			</g>
			<g id="shape68-155" v:mID="68" v:groupContext="shape" transform="translate(10.9349,0)">
				<title>Sheet.68</title>
				<path d="M1.62 431.3 L0.16 431.82 A2.2741 2.2741 0 0 1 0.04 430.65 A14.472 14.472 0 0 1 4.45 426.45 L5.07 408.36
							 L6.12 409.01 L6.63 426.94 A118.342 118.342 -180 0 0 1.62 431.3 ZM16.25 412.35 L15.36 426.22 L15.36 429.63
							 L5.42 434.47 A3.72426 3.72426 0 0 1 5.3 433.29 A20.0468 20.0468 0 0 1 10.25 428.6 L11.39 412.26 L16.25
							 412.35 Z" class="st16"/>
				<path d="M1.62 431.3 L0.16 431.82 A2.2741 2.2741 0 0 1 0.04 430.65 A14.472 14.472 0 0 1 4.45 426.45 L5.07 408.36
							 L6.12 409.01 L6.63 426.94 A118.342 118.342 -180 0 0 1.62 431.3M16.25 412.35 L15.36 426.22 L15.36 429.63
							 L5.42 434.47 A3.72426 3.72426 0 0 1 5.3 433.29 A20.0468 20.0468 0 0 1 10.25 428.6 L11.39 412.26"
						class="st17"/>
			</g>
			<g id="shape69-158" v:mID="69" v:groupContext="shape" transform="translate(9.94127,-42.1294)">
				<title>Sheet.69</title>
				<path d="M12.51 434.47 A11.2006 11.2006 -180 0 0 8.45 429.36 A10.6202 10.6202 -180 0 0 0 426.63 A134.973 116.403
							 0 0 1 5.51 423.89 A10.8808 10.8808 0 0 1 14.1 426.62 A11.2712 11.2712 0 0 1 18.12 431.64 L12.51 434.47
							 Z" class="st18"/>
			</g>
			<g id="shape70-161" v:mID="70" v:groupContext="shape" transform="translate(14.4702,-49.678)">
				<title>Sheet.70</title>
				<path d="M0.16 431.94 L0.19 433.15 A2.3674 2.3674 -180 0 0 2.94 434.21 A7.14283 7.14283 -180 0 0 6.55 433.8 L6.53
							 431.52 A6.29756 6.29756 0 0 1 0.27 431.89 L0.16 431.94 Z" class="st19"/>
				<path d="M0.16 431.94 L0.19 433.15 A2.3674 2.3674 -180 0 0 2.94 434.21 A7.14283 7.14283 -180 0 0 6.55 433.8 L6.53
							 431.52 A6.29756 6.29756 0 0 1 0.27 431.89" class="st17"/>
			</g>
			<g id="shape71-165" v:mID="71" v:groupContext="shape" transform="translate(22.3096,-18.6865)">
				<title>Sheet.71</title>
				<path d="M3.26 427.75 A3.29527 3.29527 0 0 1 5.74 431.56 A3.09865 3.09865 0 0 1 2.41 434.47 A3.21752 3.21752 0 0
							 1 0.01 430.94 A4.72464 4.72464 0 0 1 3.26 427.75 Z" class="st14"/>
			</g>
			<g id="shape72-168" v:mID="72" v:groupContext="shape" transform="translate(12.1537,-51.3428)">
				<title>Sheet.72</title>
				<path d="M11.36 428.64 A5.75729 5.75729 0 0 1 5.68 434.47 A5.75693 5.75693 0 0 1 0 428.64 A5.75693 5.75693 0 0 1
							 5.68 422.81 A5.75674 5.75674 0 0 1 11.36 428.64 L-2.84 419.9 L11.36 428.64 Z" class="st20"/>
				<path d="M11.36 428.64 A5.75729 5.75729 0 0 1 5.68 434.47 A5.75693 5.75693 0 0 1 0 428.64 A5.75693 5.75693 0 0 1
							 5.68 422.81 A5.75674 5.75674 0 0 1 11.36 428.64" class="st17"/>
			</g>
			<g id="shape73-172" v:mID="73" v:groupContext="shape" transform="translate(13.7801,-51.3394)">
				<title>Sheet.73</title>
				<path d="M7.76 433.16 A5.65053 5.65053 0 0 1 4.16 434.47 A5.70901 5.70901 0 0 1 0 432.65 L7.76 433.16 Z"
						class="st21"/>
				<path d="M7.76 433.16 A5.65053 5.65053 0 0 1 4.16 434.47 A5.70901 5.70901 0 0 1 0 432.65" class="st22"/>
			</g>
			<g id="shape74-175" v:mID="74" v:groupContext="shape" transform="translate(22.454,-23.3773)">
				<title>Sheet.74</title>
				<path d="M5.61 412.88 A8.69276 8.69276 0 0 1 5.94 414.84 A429.236 429.236 0 0 1 5.7 433.03 A7.27148 7.27148 0 0 1
							 0.54 434.41 A1199.9 1199.9 -180 0 0 0.39 417.47 A7.83038 7.83038 -180 0 0 0.03 415.81 L0 415.72 A4.51794
							 4.51794 0 0 1 5.6 412.87 L5.61 412.88 Z" class="st23"/>
				<path d="M5.61 412.88 A8.69276 8.69276 0 0 1 5.94 414.84 A429.236 429.236 0 0 1 5.7 433.03 A7.27148 7.27148 0 0 1
							 0.54 434.41 A1199.9 1199.9 -180 0 0 0.39 417.47 A7.83038 7.83038 -180 0 0 0.03 415.81 L0 415.72 A4.51794
							 4.51794 0 0 1 5.6 412.87" class="st17"/>
			</g>
			<g id="shape75-179" v:mID="75" v:groupContext="shape" transform="translate(8.90305,-3.3236)">
				<title>Sheet.75</title>
				<path d="M8.15 412.34 L8.66 430.26 A45.7462 45.7462 -180 0 0 3.96 434.47 L8.15 412.34 ZM18.56 417.72 A2.81093 2.81093
							 0 1 1 14.09 414.35 A2.68968 2.68968 0 0 1 12.02 412.38 A569.018 569.018 -180 0 0 11.98 399.44 L18.56
							 417.72 ZM2.25 414.62 L1.4 395.27 L2.25 414.62 ZM0 409.34 A4.48106 4.48106 -180 0 0 2 410.47 L0 409.34
							 Z" class="st21"/>
				<path d="M8.15 412.34 L8.66 430.26 A45.7462 45.7462 -180 0 0 3.96 434.47M18.56 417.72 A2.81093 2.81093 0 1 1 14.09
							 414.35 A2.68968 2.68968 0 0 1 12.02 412.38 A569.018 569.018 -180 0 0 11.98 399.44M2.25 414.62 L1.4 395.27M0
							 409.34 A4.48106 4.48106 -180 0 0 2 410.47" class="st24"/>
			</g>
			<g id="shape76-182" v:mID="76" v:groupContext="shape" transform="translate(7.51775,-0.0586568)">
				<title>Sheet.76</title>
				<path d="M8.95 434.47 L18.78 429.69 L18.78 426.27 L19.56 414.92 A3.03925 3.03925 -180 0 0 20.53 412.58 A4.25601 4.25601
							 -180 0 0 19.96 410.43 A1.0737 1.0737 -180 0 0 20.63 409.71 A427.906 427.906 -180 0 0 20.88 391.52 A8.78975
							 8.78975 -180 0 0 20.54 389.57 A10.9921 10.9921 -180 0 0 16.52 384.55 A16.4081 16.4081 -180 0 0 13.49
							 382.74 L13.48 382.2 A5.86419 5.86419 -180 0 0 16 377.36 A5.75795 5.75795 -180 0 0 10.32 371.53 A5.75758
							 5.75758 -180 0 0 4.64 377.36 A5.85897 5.85897 -180 0 0 7.22 382.24 A42.1393 42.1393 -180 0 0 2.42 384.56
							 A4.33634 4.33634 -180 0 0 0.65 387.22 A134.355 134.355 -180 0 0 0.36 397.82 A2951.92 2951.92 0 0 1 0.39
							 404.86 A1.85903 1.85903 -180 0 0 1.23 406.16 A3.87726 3.87726 -180 0 0 0.45 408.05 A2.93989 2.93989
							 -180 0 0 2.76 411.58 A1.37132 1.37132 -180 0 0 3.64 411.35 L4.54 424.8 L0 429.08 L0 430.15 L3.53 431.86
							 L3.82 431.76 L5.04 431.36 L5.13 432.43 L8.66 434.28 L8.95 434.47 Z" class="st25"/>
			</g>
		</g>
		<g id="group85-184" transform="translate(175.5,-52.8437)" v:mID="85" v:groupContext="group">
			<title>Sheet.85</title>
			<g id="shape84-185" v:mID="84" v:groupContext="shape" transform="translate(18,0)">
				<title>Rectangle.84</title>
				<v:userDefs>
					<v:ud v:nameU="visVersion" v:val="VT0(15):26"/>
				</v:userDefs>
				<rect x="0" y="112.719" width="72.8558" height="321.75" class="st26"/>
			</g>
			<g id="shape1-187" v:mID="1" v:groupContext="shape" transform="translate(452.469,112.719) rotate(90)">
				<title>Rectangle</title>
				<desc>Asteroid Load Balancer</desc>
				<v:userDefs>
					<v:ud v:nameU="visVersion" v:val="VT0(15):26"/>
				</v:userDefs>
				<v:textBlock v:margins="rect(4,4,4,4)"/>
				<v:textRect cx="102.539" cy="398.469" width="205.08" height="72"/>
				<rect x="0" y="362.469" width="205.079" height="72" rx="4.824" ry="4.824" class="st27"/>
				<text x="45.06" y="402.07" class="st28" v:langID="1033"><v:paragraph v:horizAlign="1"/><v:tabList/>Asteroid Load Balancer</text>			</g>
			<g id="shape79-190" v:mID="79" v:groupContext="shape" transform="translate(18,-23.3343)">
				<title>Rectangle.79</title>
				<desc>Selection Criteria</desc>
				<v:userDefs>
					<v:ud v:nameU="visVersion" v:val="VT0(15):26"/>
				</v:userDefs>
				<v:textBlock v:margins="rect(4,4,4,4)"/>
				<v:textRect cx="36" cy="423.952" width="72" height="21.0337"/>
				<rect x="0" y="413.435" width="72" height="21.0337" rx="4.824" ry="4.824" class="st29"/>
				<text x="4.72" y="426.65" class="st30" v:langID="1033"><v:paragraph v:horizAlign="1"/><v:tabList/>Selection Criteria</text>			</g>
			<g id="shape80-193" v:mID="80" v:groupContext="shape" transform="translate(18,-5.68434E-14)">
				<title>Rectangle.80</title>
				<desc>Node List</desc>
				<v:userDefs>
					<v:ud v:nameU="visVersion" v:val="VT0(15):26"/>
				</v:userDefs>
				<v:textBlock v:margins="rect(4,4,4,4)"/>
				<v:textRect cx="36" cy="423.952" width="72" height="21.0337"/>
				<rect x="0" y="413.435" width="72" height="21.0337" rx="4.824" ry="4.824" class="st31"/>
				<text x="18.91" y="426.65" class="st30" v:langID="1033"><v:paragraph v:horizAlign="1"/><v:tabList/>Node List</text>			</g>
			<g id="shape81-196" v:mID="81" v:groupContext="shape" transform="translate(18,-46.6685)">
				<title>Rectangle.81</title>
				<desc>Monitoring</desc>
				<v:userDefs>
					<v:ud v:nameU="visVersion" v:val="VT0(15):26"/>
				</v:userDefs>
				<v:textBlock v:margins="rect(4,4,4,4)"/>
				<v:textRect cx="36" cy="423.952" width="72" height="21.0337"/>
				<rect x="0" y="413.435" width="72" height="21.0337" rx="4.824" ry="4.824" class="st32"/>
				<text x="15.42" y="426.65" class="st30" v:langID="1033"><v:paragraph v:horizAlign="1"/><v:tabList/>Monitoring</text>			</g>
			<g id="shape82-199" v:mID="82" v:groupContext="shape" transform="translate(18,-93.3371)">
				<title>Rectangle.82</title>
				<desc>Security</desc>
				<v:userDefs>
					<v:ud v:nameU="visVersion" v:val="VT0(15):26"/>
				</v:userDefs>
				<v:textBlock v:margins="rect(4,4,4,4)"/>
				<v:textRect cx="36" cy="423.952" width="72" height="21.0337"/>
				<rect x="0" y="413.435" width="72" height="21.0337" rx="4.824" ry="4.824" class="st33"/>
				<text x="21.28" y="426.65" class="st30" v:langID="1033"><v:paragraph v:horizAlign="1"/><v:tabList/>Security</text>			</g>
			<g id="shape83-202" v:mID="83" v:groupContext="shape" transform="translate(18,-70.0028)">
				<title>Rectangle.83</title>
				<desc>Reliability</desc>
				<v:userDefs>
					<v:ud v:nameU="visVersion" v:val="VT0(15):26"/>
				</v:userDefs>
				<v:textBlock v:margins="rect(4,4,4,4)"/>
				<v:textRect cx="36" cy="423.952" width="72" height="21.0337"/>
				<rect x="0" y="413.435" width="72" height="21.0337" rx="4.824" ry="4.824" class="st34"/>
				<text x="18.09" y="426.65" class="st30" v:langID="1033"><v:paragraph v:horizAlign="1"/><v:tabList/>Reliability</text>			</g>
		</g>
		<g id="group86-205" transform="translate(403.875,-166.469)" v:mID="86" v:groupContext="group">
			<title>Sheet.86</title>
			<g id="shape87-206" v:mID="87" v:groupContext="shape">
				<title>Rectangle.2</title>
				<desc>Node 2</desc>
				<v:userDefs>
					<v:ud v:nameU="visVersion" v:val="VT0(15):26"/>
				</v:userDefs>
				<v:textBlock v:margins="rect(4,4,4,4)" v:verticalAlign="0"/>
				<v:textRect cx="64.125" cy="386.094" width="128.25" height="96.75"/>
				<rect x="0" y="337.719" width="128.25" height="96.75" rx="4.824" ry="4.824" class="st1"/>
				<text x="4" y="350.72" class="st2" v:langID="1033"><v:paragraph/><v:tabList/>Node 2<v:newlineChar/></text>			</g>
			<g id="group88-209" transform="translate(40.5,-4.5)" v:mID="88" v:groupContext="group">
				<title>Sheet.88</title>
				<g id="shape89-210" v:mID="89" v:groupContext="shape">
					<title>Rectangle.9</title>
					<v:userDefs>
						<v:ud v:nameU="visVersion" v:val="VT0(15):26"/>
					</v:userDefs>
					<rect x="0" y="346.719" width="83.25" height="87.75" rx="4.824" ry="4.824" class="st3"/>
				</g>
				<g id="group90-212" transform="translate(4.5,-4.63235)" v:mID="90" v:groupContext="group">
					<title>Sheet.90</title>
					<g id="shape91-213" v:mID="91" v:groupContext="shape" transform="translate(0,-61.1471)">
						<title>Rectangle.6</title>
						<desc>Attr: Height</desc>
						<v:userDefs>
							<v:ud v:nameU="visVersion" v:val="VT0(15):26"/>
						</v:userDefs>
						<v:textBlock v:margins="rect(4,4,4,4)"/>
						<v:textRect cx="37.125" cy="425.733" width="74.25" height="17.4706"/>
						<rect x="0" y="416.998" width="74.25" height="17.4706" rx="4.824" ry="4.824" class="st4"/>
						<text x="13.26" y="428.73" class="st5" v:langID="1033"><v:paragraph v:horizAlign="1"/><v:tabList/>Attr: Height</text>					</g>
					<g id="shape92-216" v:mID="92" v:groupContext="shape">
						<title>Rectangle.7</title>
						<desc>Attr: n</desc>
						<v:userDefs>
							<v:ud v:nameU="visVersion" v:val="VT0(15):26"/>
						</v:userDefs>
						<v:textBlock v:margins="rect(4,4,4,4)"/>
						<v:textRect cx="37.125" cy="425.733" width="74.25" height="17.4706"/>
						<rect x="0" y="416.998" width="74.25" height="17.4706" rx="4.824" ry="4.824" class="st4"/>
						<text x="24.04" y="428.73" class="st5" v:langID="1033"><v:paragraph v:horizAlign="1"/><v:tabList/>Attr: n</text>					</g>
					<g id="shape93-219" v:mID="93" v:groupContext="shape" transform="translate(24.9926,-23.9007)">
						<title>Sheet.93</title>
						<desc>. . .</desc>
						<v:textBlock v:margins="rect(4,4,4,4)"/>
						<v:textRect cx="12.1324" cy="415.846" width="24.27" height="37.2463"/>
						<rect x="0" y="397.222" width="24.2647" height="37.2463" rx="4.824" ry="4.824" class="st6"/>
						<text x="10.26" y="403.25" class="st7" v:langID="1033"><v:paragraph v:horizAlign="1"/><v:tabList/>.<v:newlineChar/><tspan
									x="10.26" dy="1.2em" class="st8">.<v:newlineChar/></tspan><tspan x="10.26" dy="1.2em"
									class="st8">.</tspan></text>					</g>
				</g>
			</g>
		</g>
		<g id="group94-224" transform="translate(323.009,-277.96) rotate(5.3)" v:mID="94" v:groupContext="group">
			<title>Sheet.94</title>
			<g id="shape24-225" v:mID="24" v:groupContext="shape" transform="translate(-267.701,88.7433) rotate(-40)">
				<title>Sheet.24</title>
				<desc>&#60; Node Attributes</desc>
				<v:textBlock v:margins="rect(4,4,4,4)"/>
				<v:textRect cx="51.75" cy="425.469" width="103.5" height="18"/>
				<rect x="0" y="416.469" width="103.5" height="18" class="st35"/>
				<text x="15.51" y="428.47" class="st36" v:langID="1033"><v:paragraph v:horizAlign="1"/><v:tabList/>&#60; Node Attributes</text>			</g>
			<g id="shape25-228" v:mID="25" v:groupContext="shape" transform="translate(-257.899,101.646) rotate(-40)">
				<title>Sheet.25</title>
				<desc>&#60; Proxy &#62;</desc>
				<v:textBlock v:margins="rect(4,4,4,4)"/>
				<v:textRect cx="51.75" cy="425.469" width="103.5" height="18"/>
				<rect x="0" y="416.469" width="103.5" height="18" class="st35"/>
				<text x="33.12" y="428.47" class="st36" v:langID="1033"><v:paragraph v:horizAlign="1"/><v:tabList/>&#60; Proxy &#62;</text>			</g>
		</g>
		<g id="shape95-231" v:mID="95" v:groupContext="shape" v:layerMember="0" transform="translate(266.356,-205.281)">
			<title>Dynamic connector.95</title>
			<path d="M7.52 425.97 L7.88 425.97 L129.64 424.97" class="st9"/>
		</g>
	</g>
</svg>
